<svg width="236" height="64" viewBox="0 0 236 64" fill="none" xmlns="http://www.w3.org/2000/svg">
<path d="M75.3 30.1207C75.3 27.7145 75.8305 25.5653 76.8913 23.6731C77.9753 21.7575 79.4397 20.2741 81.2847 19.2228C83.1527 18.1482 85.2399 17.6109 87.5461 17.6109C90.2444 17.6109 92.6083 18.3118 94.6377 19.7134C96.6672 21.1151 98.0855 23.054 98.8927 25.5303H93.3232C92.7697 24.3622 91.9856 23.4862 90.9708 22.9022C89.9792 22.3182 88.8261 22.0261 87.5115 22.0261C86.1047 22.0261 84.8478 22.3649 83.7408 23.0423C82.6569 23.6964 81.8036 24.6309 81.1809 25.8457C80.5813 27.0604 80.2815 28.4854 80.2815 30.1207C80.2815 31.7326 80.5813 33.1576 81.1809 34.3957C81.8036 35.6105 82.6569 36.5566 83.7408 37.2341C84.8478 37.8882 86.1047 38.2153 87.5115 38.2153C88.8261 38.2153 89.9792 37.9232 90.9708 37.3392C91.9856 36.7318 92.7697 35.8441 93.3232 34.6761H98.8927C98.0855 37.1757 96.6672 39.1263 94.6377 40.528C92.6313 41.9063 90.2674 42.5954 87.5461 42.5954C85.2399 42.5954 83.1527 42.0698 81.2847 41.0186C79.4397 39.944 77.9753 38.4605 76.8913 36.5683C75.8305 34.6761 75.3 32.5269 75.3 30.1207Z" fill="white"/>
<path d="M101.784 32.6086C101.784 30.6463 102.164 28.9059 102.926 27.3875C103.71 25.869 104.759 24.701 106.074 23.8833C107.411 23.0657 108.899 22.6569 110.536 22.6569C111.966 22.6569 113.211 22.9489 114.272 23.5329C115.356 24.1169 116.221 24.8528 116.867 25.7405V22.9723H121.744V42.3852H116.867V39.5468C116.244 40.4579 115.379 41.2171 114.272 41.8245C113.188 42.4085 111.931 42.7006 110.501 42.7006C108.887 42.7006 107.411 42.2801 106.074 41.4391C104.759 40.5981 103.71 39.4183 102.926 37.8999C102.164 36.3581 101.784 34.5943 101.784 32.6086ZM116.867 32.6787C116.867 31.4873 116.636 30.4711 116.175 29.6301C115.714 28.7658 115.091 28.1117 114.307 27.6678C113.523 27.2006 112.681 26.967 111.781 26.967C110.882 26.967 110.052 27.1889 109.291 27.6328C108.53 28.0766 107.907 28.7307 107.423 29.5951C106.961 30.4361 106.731 31.4406 106.731 32.6086C106.731 33.7767 106.961 34.8046 107.423 35.6923C107.907 36.5566 108.53 37.2224 109.291 37.6896C110.075 38.1569 110.905 38.3905 111.781 38.3905C112.681 38.3905 113.523 38.1685 114.307 37.7247C115.091 37.2575 115.714 36.6034 116.175 35.7624C116.636 34.898 116.867 33.8701 116.867 32.6787Z" fill="white"/>
<path d="M137.095 22.6919C139.378 22.6919 141.223 23.4278 142.63 24.8995C144.036 26.3479 144.74 28.3803 144.74 30.9967V42.3852H139.897V31.6625C139.897 30.1207 139.516 28.941 138.755 28.1233C137.994 27.2823 136.956 26.8619 135.642 26.8619C134.304 26.8619 133.243 27.2823 132.459 28.1233C131.698 28.941 131.317 30.1207 131.317 31.6625V42.3852H126.474V22.9723H131.317V25.3901C131.963 24.5491 132.782 23.895 133.774 23.4278C134.788 22.9372 135.895 22.6919 137.095 22.6919Z" fill="white"/>
<path d="M148.1 32.6086C148.1 30.6463 148.48 28.9059 149.241 27.3875C150.026 25.869 151.086 24.701 152.424 23.8833C153.762 23.0657 155.249 22.6569 156.887 22.6569C158.132 22.6569 159.32 22.9372 160.45 23.4979C161.58 24.0352 162.479 24.7594 163.148 25.6704V16.4546H168.06V42.3852H163.148V39.5118C162.548 40.4696 161.707 41.2405 160.623 41.8245C159.539 42.4085 158.282 42.7006 156.852 42.7006C155.238 42.7006 153.762 42.2801 152.424 41.4391C151.086 40.5981 150.026 39.4183 149.241 37.8999C148.48 36.3581 148.1 34.5943 148.1 32.6086ZM163.183 32.6787C163.183 31.4873 162.952 30.4711 162.491 29.6301C162.029 28.7658 161.407 28.1117 160.623 27.6678C159.839 27.2006 158.997 26.967 158.097 26.967C157.198 26.967 156.368 27.1889 155.607 27.6328C154.846 28.0766 154.223 28.7307 153.739 29.5951C153.277 30.4361 153.047 31.4406 153.047 32.6086C153.047 33.7767 153.277 34.8046 153.739 35.6923C154.223 36.5566 154.846 37.2224 155.607 37.6896C156.391 38.1569 157.221 38.3905 158.097 38.3905C158.997 38.3905 159.839 38.1685 160.623 37.7247C161.407 37.2575 162.029 36.6034 162.491 35.7624C162.952 34.898 163.183 33.8701 163.183 32.6787Z" fill="white"/>
<path d="M177.633 16.4546V42.3852H172.79V16.4546H177.633Z" fill="white"/>
<path d="M200.234 32.2582C200.234 32.9591 200.188 33.5898 200.096 34.1505H186.085C186.201 35.5521 186.685 36.6501 187.538 37.4443C188.391 38.2386 189.441 38.6357 190.686 38.6357C192.485 38.6357 193.765 37.8532 194.526 36.288H199.75C199.196 38.1569 198.135 39.6987 196.567 40.9134C194.999 42.1048 193.073 42.7006 190.79 42.7006C188.945 42.7006 187.285 42.2917 185.809 41.4741C184.356 40.6331 183.214 39.4534 182.384 37.9349C181.577 36.4165 181.173 34.6644 181.173 32.6787C181.173 30.6697 181.577 28.9059 182.384 27.3875C183.191 25.869 184.321 24.701 185.774 23.8833C187.227 23.0657 188.899 22.6569 190.79 22.6569C192.612 22.6569 194.238 23.054 195.668 23.8483C197.121 24.6426 198.239 25.7756 199.023 27.2473C199.83 28.6957 200.234 30.366 200.234 32.2582ZM195.218 30.8566C195.195 29.5951 194.745 28.5906 193.869 27.843C192.992 27.0721 191.92 26.6866 190.652 26.6866C189.452 26.6866 188.438 27.0604 187.607 27.808C186.8 28.5322 186.304 29.5484 186.12 30.8566H195.218Z" fill="white"/>
<path d="M202.524 32.6086C202.524 30.6463 202.904 28.9059 203.665 27.3875C204.449 25.869 205.499 24.701 206.813 23.8833C208.151 23.0657 209.638 22.6569 211.276 22.6569C212.706 22.6569 213.951 22.9489 215.012 23.5329C216.096 24.1169 216.961 24.8528 217.606 25.7405V22.9723H222.484V42.3852H217.606V39.5468C216.984 40.4579 216.119 41.2171 215.012 41.8245C213.928 42.4085 212.671 42.7006 211.241 42.7006C209.627 42.7006 208.151 42.2801 206.813 41.4391C205.499 40.5981 204.449 39.4183 203.665 37.8999C202.904 36.3581 202.524 34.5943 202.524 32.6086ZM217.606 32.6787C217.606 31.4873 217.376 30.4711 216.914 29.6301C216.453 28.7658 215.831 28.1117 215.046 27.6678C214.262 27.2006 213.421 26.967 212.521 26.967C211.622 26.967 210.791 27.1889 210.03 27.6328C209.269 28.0766 208.647 28.7307 208.162 29.5951C207.701 30.4361 207.47 31.4406 207.47 32.6086C207.47 33.7767 207.701 34.8046 208.162 35.6923C208.647 36.5566 209.269 37.2224 210.03 37.6896C210.814 38.1569 211.645 38.3905 212.521 38.3905C213.421 38.3905 214.262 38.1685 215.046 37.7247C215.831 37.2575 216.453 36.6034 216.914 35.7624C217.376 34.898 217.606 33.8701 217.606 32.6787Z" fill="white"/>
<path d="M236.001 27.002H232.645V42.3852H227.733V27.002H225.554V22.9723H227.733V21.9911C227.733 19.6083 228.402 17.8562 229.739 16.7349C231.077 15.6136 233.095 15.088 235.793 15.158V19.2929C234.617 19.2696 233.798 19.4681 233.337 19.8886C232.876 20.3091 232.645 21.0683 232.645 22.1663V22.9723H236.001V27.002Z" fill="white"/>
<mask id="mask0_1164_258" style="mask-type:alpha" maskUnits="userSpaceOnUse" x="0" y="0" width="64" height="64">
<circle cx="31.681" cy="31.681" r="31.681" fill="#F578A5"/>
</mask>
<g mask="url(#mask0_1164_258)">
<circle cx="31.681" cy="31.681" r="31.681" fill="white"/>
<path d="M17.108 62.9028V63.5959H17.801H47.1863H47.8793V62.9028V50.5728C47.8793 49.4403 46.9817 48.5116 45.8498 48.473L19.2807 47.5672C18.0929 47.5267 17.108 48.4786 17.108 49.6671V62.9028Z" fill="#272727" stroke="#272727" stroke-width="1.38604"/>
<g clip-path="url(#clip0_1164_258)">
<path d="M23.2119 22.2461C29.6683 13.2691 26.8911 5.96215 26.8989 5.95348C26.762 5.58755 26.9477 5.18001 27.3136 5.04312C27.4982 4.97407 27.7033 4.9852 27.8793 5.07374C39.5319 10.6496 44.5463 17.8476 45.5065 24.3553C45.8882 26.8837 45.6496 29.467 44.8112 31.8828C44.0429 34.1118 42.7632 36.13 41.0746 37.7753C37.8264 40.9123 33.2871 42.3583 28.807 40.8923C27.661 40.5184 26.5796 39.9699 25.601 39.266C23.6379 37.8571 22.1487 35.8853 21.3307 33.6115C20.4627 31.1797 20.4351 28.5271 21.2524 26.0778C21.7037 24.7069 22.3647 23.4143 23.2119 22.2461Z" fill="#272727"/>
<path d="M27.0409 6.18501C26.7571 5.91656 26.7446 5.46884 27.013 5.18507C27.2815 4.9013 27.7292 4.88878 28.013 5.15723C28.0339 5.17698 28.0534 5.19797 28.0718 5.22013C28.0978 5.24353 33.7238 11.1408 34.5275 22.5388L34.5359 22.6457C34.7094 25.3097 34.6237 27.9843 34.2802 30.6318L38.1271 27.6836C38.4493 27.4627 38.8896 27.5448 39.1105 27.867C39.3105 28.1587 39.2643 28.5532 39.0025 28.7908L33.9749 32.632C32.8494 39.249 28.8817 48.6102 34.1341 54.4692C34.3871 54.767 34.3509 55.2134 34.0531 55.4663C33.7698 55.7071 33.3484 55.6874 33.0887 55.4212C26.7902 48.4006 31.3733 39.7034 32.6276 32.1824L32.6441 32.077C33.1542 29.0841 33.329 26.0436 33.1653 23.012L28.6434 19.6989C28.3209 19.4784 28.2382 19.0382 28.4587 18.7157C28.6791 18.3932 29.1193 18.3104 29.4418 18.5309C29.4552 18.54 29.4683 18.5496 29.4809 18.5597L32.9846 21.1391C31.8917 11.2587 27.0614 6.2087 27.0409 6.18501Z" fill="white"/>
</g>
</g>
<defs>
<clipPath id="clip0_1164_258">
<rect width="38.8832" height="38.8832" fill="white" transform="translate(3.73462 31.0383) rotate(-48)"/>
</clipPath>
</defs>
</svg>
